<?xml version="1.0" encoding="UTF-8" standalone="no"?>
<!-- Created with Inkscape (http://www.inkscape.org/) -->

<svg
   width="325.39801"
   height="143.52365"
   viewBox="0 0 325.398 143.52365"
   version="1.1"
   id="svg5"
   inkscape:version="1.4.3 (0d15f75042, 2025-12-25)"
   xml:space="preserve"
   sodipodi:docname="ow-register.svg"
   inkscape:export-filename="../../Repos/open-waters/Assets/img/openwaters.png"
   inkscape:export-xdpi="600"
   inkscape:export-ydpi="600"
   xmlns:inkscape="http://www.inkscape.org/namespaces/inkscape"
   xmlns:sodipodi="http://sodipodi.sourceforge.net/DTD/sodipodi-0.dtd"
   xmlns:xlink="http://www.w3.org/1999/xlink"
   xmlns="http://www.w3.org/2000/svg"
   xmlns:svg="http://www.w3.org/2000/svg"
   xmlns:rdf="http://www.w3.org/1999/02/22-rdf-syntax-ns#"
   xmlns:cc="http://creativecommons.org/ns#"
   xmlns:dc="http://purl.org/dc/elements/1.1/"><sodipodi:namedview
     id="namedview7"
     pagecolor="#203f5c"
     bordercolor="#666666"
     borderopacity="0.89411765"
     inkscape:pageshadow="2"
     inkscape:pageopacity="0"
     inkscape:pagecheckerboard="false"
     inkscape:document-units="px"
     showgrid="false"
     units="px"
     showguides="true"
     inkscape:lockguides="false"
     objecttolerance="7.1"
     gridtolerance="4.7"
     guidetolerance="2.2"
     inkscape:snap-tangential="true"
     inkscape:snap-perpendicular="true"
     inkscape:showpageshadow="2"
     inkscape:deskcolor="#ffffff"
     inkscape:zoom="3.047414"
     inkscape:cx="166.2065"
     inkscape:cy="53.323901"
     inkscape:current-layer="layer1" /><defs
     id="defs2"><inkscape:path-effect
       effect="tiling"
       id="path-effect5"
       is_visible="true"
       lpeversion="1.3.1"
       unit="px"
       seed="1;1"
       lpesatellites=""
       num_rows="1"
       num_cols="3"
       gapx="10"
       gapy="0"
       offset="0"
       offset_type="true"
       scale="-20"
       rotate="0"
       mirrorrowsx="false"
       mirrorrowsy="false"
       mirrorcolsx="false"
       mirrorcolsy="false"
       mirrortrans="false"
       shrink_interp="false"
       split_items="false"
       link_styles="false"
       interpolate_scalex="true"
       interpolate_scaley="false"
       interpolate_rotatex="false"
       interpolate_rotatey="true"
       random_scale="false"
       random_rotate="false"
       random_gap_y="false"
       random_gap_x="false"
       transformorigin="" /><inkscape:path-effect
       effect="clone_original"
       linkeditem=""
       id="path-effect4"
       is_visible="true"
       lpeversion="1"
       method="d"
       attributes=""
       css_properties=""
       allow_transforms="true" /></defs><rect
     style="fill:none;fill-opacity:0;stroke:none;stroke-width:24;stroke-linecap:round;stroke-dasharray:none;stroke-opacity:1"
     id="rect5"
     width="301.39801"
     height="119.52365"
     x="12"
     y="12" /><g
     inkscape:label="Layer 1"
     inkscape:groupmode="layer"
     id="layer1"
     transform="translate(-103.30105,-91.535036)"><g
       id="g40"><g
         id="g34"
         transform="translate(12.000003,6.999994)"
         style="fill:#f5eede;fill-opacity:1"><path
           id="text1"
           style="font-weight:900;font-size:59.1842px;line-height:4.68057px;font-family:Montserrat;-inkscape-font-specification:'Montserrat Heavy';text-align:center;letter-spacing:5.29167px;word-spacing:0px;text-anchor:middle;fill:#f5eede;fill-opacity:1;stroke-width:0.264583"
           d="m 126.678,95.611326 c -13.494,0 -23.37695,9.113104 -23.37695,21.660154 0,12.54704 9.88295,21.66211 23.37695,21.66211 13.494,0 23.3789,-9.11507 23.3789,-21.66211 0,-12.54705 -9.8849,-21.660154 -23.3789,-21.660154 z m 33.75976,0.945313 v 41.429691 h 13.9668 v -10.17969 h 5.97852 c 11.54092,0 18.8789,-6.03716 18.8789,-15.625 0,-9.58784 -7.33798,-15.625001 -18.8789,-15.625001 z m 48.67383,0 v 41.429691 h 34.44531 v -10.53516 h -20.71484 v -5.44531 h 17.51953 v -10.06055 h -17.51953 v -4.85351 h 19.94531 V 96.556639 Z m 45.12305,0 v 41.429691 h 13.61133 v -18.82032 l 15.74414,18.82032 h 11.48047 V 96.556639 H 281.45925 V 115.3789 L 265.71706,96.556639 Z m -127.75586,5.304691 a 0.9413242,0.9413242 0 0 1 0.94141,0.9414 0.9413242,0.9413242 0 0 1 0,0.002 v 0.006 a 0.9413242,0.9413242 0 0 1 -0.004,0.0586 l -0.11328,3.29492 c 2.37098,0.17978 4.53488,1.12745 6.24023,2.59375 l 2.25391,-2.41406 a 0.9413242,0.9413242 0 0 1 0.0469,-0.0508 0.9413242,0.9413242 0 0 1 1.33008,0 0.9413242,0.9413242 0 0 1 0,1.33203 l -0.004,0.004 a 0.9413242,0.9413242 0 0 1 -0.043,0.0391 l -2.41797,2.25781 c 1.46627,1.70533 2.41395,3.86735 2.59375,6.23828 l 3.29297,-0.11133 a 0.9413242,0.9413242 0 0 1 0.0684,-0.002 0.9413242,0.9413242 0 0 1 0.9414,0.93945 0.9413242,0.9413242 0 0 1 -0.9414,0.94141 h -0.006 a 0.9413242,0.9413242 0 0 1 -0.0586,-0.002 L 137.303,117.8164 c -0.17991,2.37067 -1.12577,4.53268 -2.5918,6.23829 l 2.41406,2.25586 a 0.9413242,0.9413242 0 0 1 0.0508,0.0469 0.9413242,0.9413242 0 0 1 0,1.33008 0.9413242,0.9413242 0 0 1 -1.33204,0 l -0.004,-0.004 a 0.9413242,0.9413242 0 0 1 -0.041,-0.043 l -2.25586,-2.41797 c -1.70539,1.46683 -3.86917,2.41584 -6.24023,2.59571 l 0.11328,3.29101 a 0.9413242,0.9413242 0 0 1 0.004,0.0684 0.9413242,0.9413242 0 0 1 -0.94141,0.94141 0.9413242,0.9413242 0 0 1 -0.94141,-0.94141 0.9413242,0.9413242 0 0 1 0,-0.002 v -0.006 a 0.9413242,0.9413242 0 0 1 0.002,-0.0566 l 0.11328,-3.29492 c -2.37077,-0.18001 -4.53265,-1.1291 -6.23828,-2.59571 l -2.25391,2.41407 a 0.9413242,0.9413242 0 0 1 -0.0469,0.0508 0.9413242,0.9413242 0 0 1 -1.33204,0 0.9413242,0.9413242 0 0 1 0,-1.33008 l 0.004,-0.006 a 0.9413242,0.9413242 0 0 1 0.043,-0.0391 l 2.41797,-2.25781 c -1.46656,-1.70564 -2.41377,-3.86754 -2.59375,-6.23829 l -3.29297,0.11329 a 0.9413242,0.9413242 0 0 1 -0.0684,0.002 0.9413242,0.9413242 0 0 1 -0.93945,-0.94141 0.9413242,0.9413242 0 0 1 0.9414,-0.9414 h 0.006 a 0.9413242,0.9413242 0 0 1 0.0586,0.002 l 3.29492,0.11328 c 0.17987,-2.37105 1.12691,-4.53486 2.59375,-6.24023 l -2.41406,-2.25391 a 0.9413242,0.9413242 0 0 1 -0.0508,-0.0469 0.9413242,0.9413242 0 0 1 0,-1.33204 h 0.002 a 0.9413242,0.9413242 0 0 1 1.33008,0 l 0.004,0.006 a 0.9413242,0.9413242 0 0 1 0.041,0.043 l 2.25586,2.41797 c 1.70558,-1.46599 3.8696,-2.41384 6.24023,-2.59375 l -0.11328,-3.29297 a 0.9413242,0.9413242 0 0 1 -0.002,-0.0684 0.9413242,0.9413242 0 0 1 0.93945,-0.9414 z m 47.92578,5.46679 h 5.08984 c 3.84698,0 5.6836,1.83512 5.6836,4.85352 0,3.01839 -1.83662,4.85351 -5.6836,4.85351 h -5.08984 z m -48.64258,2.01172 c -1.58994,0.14524 -3.03447,0.7681 -4.1914,1.72656 l 1.78711,1.91407 a 5.0808846,5.0808846 0 0 1 2.49414,-1.03321 z m 1.4336,0 -0.0899,2.60742 a 5.0808846,5.0808846 0 0 1 2.4961,1.03321 l 1.78711,-1.91407 c -1.15707,-0.95846 -2.60326,-1.58147 -4.19336,-1.72656 z m -6.63868,2.74024 c -0.95818,1.15697 -1.5815,2.60354 -1.72656,4.19336 l 2.60742,0.0898 a 5.0808846,5.0808846 0 0 1 1.03321,-2.49609 z m 11.84571,0 -1.91406,1.78711 a 5.0808846,5.0808846 0 0 1 1.0332,2.49609 l 2.60742,-0.0898 c -0.1451,-1.59004 -0.76813,-3.03632 -1.72656,-4.19336 z m -0.88086,5.53515 a 5.0808846,5.0808846 0 0 1 -1.0332,2.4961 l 1.91406,1.78711 c 0.95846,-1.15695 1.58135,-2.60341 1.72656,-4.19336 z m -10.08399,0.002 -2.60742,0.0879 c 0.14519,1.58973 0.76833,3.03649 1.72656,4.19336 l 1.91407,-1.78711 a 5.0808846,5.0808846 0 0 1 -1.03321,-2.49414 z m 1.91993,3.38086 -1.78711,1.91406 c 1.15687,0.95824 2.60362,1.58136 4.19336,1.72656 l 0.0879,-2.60742 a 5.0808846,5.0808846 0 0 1 -2.49414,-1.0332 z m 6.24414,0 a 5.0808846,5.0808846 0 0 1 -2.4961,1.0332 l 0.0899,2.60742 c 1.58983,-0.14507 3.03639,-0.76835 4.19336,-1.72656 z m 257.69726,25.81835 c -12.84297,0 -19.29492,6.27481 -19.29492,13.96875 0,15.44708 22.9043,11.24492 22.9043,16.45313 0,1.42042 -1.41943,2.24805 -5.38477,2.24805 -4.55718,0 -9.76571,-1.47893 -13.67187,-3.78711 l -4.49805,10.17968 c 4.1429,2.54492 11.12623,4.25977 18.05078,4.25977 12.84298,0 19.29492,-6.39122 19.29492,-13.9668 0,-15.26952 -22.90429,-11.12618 -22.90429,-16.09765 0,-1.42042 1.30105,-2.60352 5.38476,-2.60352 3.61024,0 7.45731,1.00472 11.54102,3.07617 l 4.20312,-10.11914 c -4.32045,-2.42656 -10.06169,-3.61133 -15.625,-3.61133 z m -283.85156,0.94727 13.25781,41.42969 h 14.97461 l 7.04297,-22.13477 6.6875,22.13477 h 14.97266 l 13.25781,-41.42969 h -13.25781 l -7.63477,23.85156 -7.2207,-23.85156 h -12.8418 l -7.63476,23.55469 -7.22071,-23.55469 z m 90.69531,0 -18.11133,41.42969 h 14.20508 l 2.78125,-7.22071 h 15.74414 l 2.78125,7.22071 h 14.44141 l -18.11133,-41.42969 z m 34.17383,0 v 10.83008 h 12.13281 v 30.59961 h 13.9668 v -30.59961 h 12.13281 v -10.83008 z m 47.13477,0 v 41.42969 h 34.44531 V 178.6582 H 289.1819 v -5.44531 h 17.51954 V 163.15234 H 289.1819 v -4.85351 h 19.94532 v -10.53516 z m 45.12304,0 v 41.42969 h 13.9668 v -10.41797 h 3.78711 l 7.04297,10.41797 h 14.91601 l -8.70117,-12.7852 c 4.97147,-2.54492 7.8125,-7.04193 7.8125,-13.01953 0,-9.58784 -6.7461,-15.625 -19.4707,-15.625 z m 13.9668,10.77148 h 5.08984 c 3.84697,0 5.68164,1.83512 5.68164,4.85352 0,3.01839 -1.83467,4.85352 -5.68164,4.85352 h -5.08984 z m -133.65234,2.95899 4.02539,10.41601 h -8.04883 z" /><path
           id="path2"
           style="font-variation-settings:normal;fill:#f5eede;fill-opacity:1;stroke:none;stroke-width:1.56104;stroke-linecap:round;stroke-linejoin:round;stroke-miterlimit:4;stroke-dasharray:none;stroke-dashoffset:0;stroke-opacity:1;stop-color:#000000"
           d="m 318.967,98.551337 c -0.17431,0.0613 -0.31821,0.25479 -0.43201,0.58051 -2.02805,-0.0937 -3.57391,-0.0727 -4.44965,0.37215 1.02679,0.40997 2.63917,0.24318 4.37723,0.0688 l -0.0552,0.391 c -0.40388,0.0197 -0.77773,0.0955 -0.84665,0.344753 -0.25004,0.88166 -0.25149,2.38346 -0.28917,3.30552 l -8.04104,1.00859 c -0.1395,0.0213 -0.23131,0.1153 -0.23599,0.24982 l 0.017,2.03107 c -0.003,0.24234 0.15021,0.40328 0.46092,0.48302 l 8.07667,1.66645 c 0.18253,1.65612 0.44614,3.35153 0.77026,5.01464 l 1e-5,4.3e-4 -3.03318,1.34493 c -0.84935,0.50067 -0.55678,1.70324 0.10876,1.6937 l 3.57196,-0.0834 c 0.18014,0.73894 0.3705,1.46191 0.56926,2.16199 l 4.3e-4,-2e-5 c 0.15986,-0.70997 0.31009,-1.44233 0.4492,-2.19008 l 3.57112,-0.1137 c 0.66505,-0.0272 0.89087,-1.24403 0.0152,-1.69712 l -3.10271,-1.17566 -1e-5,-4.3e-4 c 0.23192,-1.67845 0.40167,-3.38582 0.49261,-5.04947 l 7.97251,-2.1092 c 0.30584,-0.0967 0.45058,-0.26594 0.43359,-0.50771 l -0.095,-2.02891 c -0.0121,-0.13405 -0.10896,-0.22284 -0.2494,-0.23642 l -8.08442,-0.56374 c -0.0885,-0.91859 -0.1727,-2.41803 -0.47098,-3.28455 -0.0826,-0.245093 -0.46001,-0.300153 -0.86436,-0.297553 l -0.0767,-0.38736 c 1.74503,0.0783 3.36415,0.15595 4.36678,-0.31001 -0.89895,-0.39592 -2.44361,-0.33164 -4.4634,-0.12624 -0.13158,-0.31897 -0.28593,-0.50417 -0.46337,-0.55582 -3.7e-4,0 -4.2e-4,1e-5 -4.2e-4,1e-5 z"
           sodipodi:nodetypes="ccccccccccccsccccccccccscccccccccccccc" /><path
           id="path6"
           style="font-variation-settings:normal;fill:#f5eede;fill-opacity:1;stroke:none;stroke-width:1.56104;stroke-linecap:round;stroke-linejoin:round;stroke-miterlimit:4;stroke-dasharray:none;stroke-dashoffset:0;stroke-opacity:1;stop-color:#000000"
           d="m 350.23711,87.015628 c -0.31098,-0.0085 -0.65366,0.208988 -1.02871,0.652478 -3.13179,-1.368534 -5.57463,-2.266361 -7.21923,-2.094304 1.36732,1.262781 4.00252,1.97147 6.83989,2.743854 l -0.32219,0.581451 c -0.6468,-0.212151 -1.28014,-0.318198 -1.53856,0.03222 -0.92399,1.235456 -1.83057,3.595514 -2.44502,5.022373 l -13.2484,-3.256325 c -0.23212,-0.05051 -0.43303,0.04212 -0.52142,0.250618 l -1.19626,3.203235 c -0.15169,0.378755 -0.007,0.724429 0.43375,1.036862 l 11.69364,7.48312 c -0.71027,2.71344 -1.31675,5.53747 -1.80865,8.34718 l -2.5e-4,6.9e-4 -5.57819,0.28789 c -1.63673,0.27565 -1.90093,2.34235 -0.84889,2.7281 l 5.66555,2.01979 c -0.16174,1.27015 -0.29783,2.52133 -0.40692,3.74158 l 6.9e-4,2.3e-4 c 0.67882,-1.01986 1.35598,-2.0807 2.02494,-3.17246 l 5.68252,1.97159 c 1.06184,0.35776 2.14959,-1.41927 1.04581,-2.65882 l -4.16975,-3.71651 2.5e-4,-6.9e-4 c 1.37528,-2.49899 2.6702,-5.08088 3.81494,-7.64149 l 13.80339,1.48481 c 0.53903,0.0321 0.86848,-0.14681 0.98735,-0.53707 l 1.07235,-3.24679 c 0.0618,-0.21804 -0.0371,-0.41594 -0.24969,-0.52186 l -12.36982,-5.754243 c 0.41406,-1.49735 1.1845,-3.90528 1.23737,-5.447146 0.0179,-0.434982 -0.54244,-0.748842 -1.17967,-0.988243 l 0.11273,-0.655113 c 2.69614,1.173884 5.19478,2.270883 7.05154,2.142101 -1.17478,-1.163707 -3.64182,-1.99278 -6.94076,-2.886094 -0.0148,-0.580671 -0.14592,-0.964744 -0.39374,-1.152792 -6e-4,-2.18e-4 -6.8e-4,-2.43e-4 -6.8e-4,-2.43e-4 z"
           sodipodi:nodetypes="ccccccccccccsccccccccccscccccccccccccc" /><path
           id="path7"
           style="font-variation-settings:normal;fill:#f5eede;fill-opacity:1;stroke:none;stroke-width:1.56104;stroke-linecap:round;stroke-linejoin:round;stroke-miterlimit:4;stroke-dasharray:none;stroke-dashoffset:0;stroke-opacity:1;stop-color:#000000"
           d="m 368.28893,114.24794 c 0.10739,0.1504 0.11399,0.39139 0.02,0.72335 1.71359,1.08877 2.96663,1.99431 3.42766,2.86164 -1.07591,-0.25454 -2.29961,-1.31764 -3.62177,-2.45918 l -0.17954,0.3517 c 0.31917,0.24824 0.58161,0.52509 0.49476,0.76867 -0.30203,0.86524 -1.16389,2.09512 -1.66294,2.87137 l 6.00103,5.44638 c 0.10191,0.0976 0.12301,0.22729 0.0496,0.34007 l -1.18113,1.65242 c -0.13625,0.20044 -0.35468,0.24371 -0.65478,0.13044 l -7.56746,-3.27766 c -1.10112,1.25044 -2.29116,2.48644 -3.51216,3.66124 l -2.6e-4,3.6e-4 1.70941,2.84373 c 0.40737,0.89786 -0.52314,1.71388 -1.06233,1.3236 l -2.87533,-2.12092 c -0.57207,0.50122 -1.14332,0.98349 -1.70831,1.44219 l -3.3e-4,-2.6e-4 c 0.27716,-0.67289 0.57509,-1.35857 0.89095,-2.05046 l -2.8572,-2.14529 c -0.52865,-0.40441 -0.0142,-1.53005 0.96285,-1.39763 l 3.21481,0.82091 2.6e-4,-3.5e-4 c 0.77476,-1.50689 1.61703,-3.00172 2.49865,-4.41549 l -5.31245,-6.30771 c -0.19471,-0.25491 -0.21593,-0.47658 -0.0631,-0.66467 l 1.24371,-1.60583 c 0.0869,-0.10273 0.21723,-0.11976 0.33997,-0.0502 l 6.94012,4.18455 c 0.60029,-0.70092 1.53092,-1.87961 2.27299,-2.41736 0.20837,-0.15315 0.54896,0.0187 0.87838,0.25322 l 0.28534,-0.27294 c -1.47311,-0.93874 -2.84278,-1.80567 -3.39554,-2.76318 0.96319,0.19258 2.19038,1.13286 3.72532,2.46167 0.29098,-0.18541 0.52373,-0.24828 0.69861,-0.18858 3e-4,2.1e-4 3.5e-4,2.5e-4 3.5e-4,2.5e-4 z"
           sodipodi:nodetypes="ccccccccccccsccccccccccscccccccccccccc" /><path
           style="font-variation-settings:normal;opacity:1;vector-effect:none;fill:#f5eede;fill-opacity:1;stroke:none;stroke-width:2.64583;stroke-linecap:round;stroke-linejoin:round;stroke-miterlimit:4;stroke-dasharray:none;stroke-dashoffset:0;stroke-opacity:1;-inkscape-stroke:none;stop-color:#000000;stop-opacity:1"
           d="m 305.81771,125.49763 c 0.11409,0.45637 0,12.32199 0,12.32199 h 71.1937 c -49.05976,-5.94776 -47.0061,-19.41912 -71.1937,-12.32199 z"
           id="path8"
           sodipodi:nodetypes="cccc" /></g><text
         xml:space="preserve"
         style="font-weight:bold;font-size:24px;line-height:0.216277px;font-family:Montserrat;-inkscape-font-specification:'Montserrat, Bold';text-align:center;text-anchor:middle;fill:#f5eede;fill-opacity:1"
         x="265.38803"
         y="223.0587"
         id="text2"><tspan
           sodipodi:role="line"
           id="tspan1"
           x="265.38803"
           y="223.0587"
           style="font-size:24px;line-height:0.216277px;fill:#f5eede;fill-opacity:1">REGISTER</tspan></text><path
         style="fill:#f5eede;fill-opacity:1;stroke-width:120;stroke-linecap:round"
         id="path3"
         inkscape:path-effect="#path-effect5"
         sodipodi:type="arc"
         sodipodi:cx="344.95505"
         sodipodi:cy="214.65869"
         sodipodi:rx="5.5569143"
         sodipodi:ry="5.5569143"
         d="m 350.51196,214.65869 c 0,3.069 -2.48791,5.55692 -5.55691,5.55692 -3.069,0 -5.55692,-2.48792 -5.55692,-5.55692 0,-3.069 2.48792,-5.55691 5.55692,-5.55691 3.069,0 5.55691,2.48791 5.55691,5.55691 z m 20.00245,0 c 0,2.4552 -1.99033,4.44553 -4.44553,4.44553 -2.4552,0 -4.44554,-1.99033 -4.44554,-4.44553 0,-2.4552 1.99034,-4.44553 4.44554,-4.44553 2.4552,0 4.44553,1.99033 4.44553,4.44553 z m 20.00244,0 c 0,1.8414 -1.49275,3.33415 -3.33415,3.33415 -1.8414,0 -3.33414,-1.49275 -3.33414,-3.33415 0,-1.8414 1.49274,-3.33415 3.33414,-3.33415 1.8414,0 3.33415,1.49275 3.33415,3.33415 z"
         transform="translate(-0.44341001)" /><use
         x="0"
         y="0"
         xlink:href="#path3"
         id="use5"
         transform="matrix(-1,0,0,1,532.00002,-3.59375e-6)" /></g></g><metadata
     id="metadata9"><rdf:RDF><cc:Work
         rdf:about=""><dc:creator><cc:Agent><dc:title>onindynamics</dc:title></cc:Agent></dc:creator></cc:Work></rdf:RDF></metadata></svg>
