<?xml version="1.0" encoding="UTF-8" standalone="no"?>
<!-- Created with Inkscape (http://www.inkscape.org/) -->

<svg
   width="77.118217mm"
   height="13.282951mm"
   viewBox="0 0 77.118217 13.282951"
   version="1.1"
   id="svg1"
   inkscape:version="1.3.2 (091e20ef0f, 2023-11-25, custom)"
   sodipodi:docname="logo.svg"
   xmlns:inkscape="http://www.inkscape.org/namespaces/inkscape"
   xmlns:sodipodi="http://sodipodi.sourceforge.net/DTD/sodipodi-0.dtd"
   xmlns="http://www.w3.org/2000/svg"
   xmlns:svg="http://www.w3.org/2000/svg">
  <sodipodi:namedview
     id="namedview1"
     pagecolor="#505050"
     bordercolor="#eeeeee"
     borderopacity="1"
     inkscape:showpageshadow="0"
     inkscape:pageopacity="0"
     inkscape:pagecheckerboard="0"
     inkscape:deskcolor="#505050"
     inkscape:document-units="mm"
     inkscape:zoom="2.2019305"
     inkscape:cx="200.73295"
     inkscape:cy="-9.9912327"
     inkscape:window-width="1916"
     inkscape:window-height="1047"
     inkscape:window-x="0"
     inkscape:window-y="0"
     inkscape:window-maximized="1"
     inkscape:current-layer="text1" />
  <defs
     id="defs1" />
  <g
     inkscape:label="Layer 1"
     inkscape:groupmode="layer"
     id="layer1"
     transform="translate(-6.2256808,-4.2505988)">
    <g
       id="text1"
       style="font-size:17.6646px;font-family:'Swis721 BlkCn BT';-inkscape-font-specification:'Swis721 BlkCn BT, Normal';letter-spacing:-0.79375px;fill:#ffffff;stroke:#ffffff;stroke-width:1.05833;stroke-linecap:round"
       transform="skewX(-6.047303)"
       aria-label="PRIMERIDE">
      <path
         style="stroke:none"
         d="m 11.205524,9.9691682 q 0.069,0.00863 0.155255,0.017251 0.09488,0.00863 0.258759,0.00863 0.931532,0 1.345546,-0.4312646 0.414014,-0.43989 0.414014,-1.4059228 0,-0.8021523 -0.43989,-1.1557893 -0.43989,-0.353637 -1.4663,-0.353637 H 11.205524 Z M 8.083168,17.53355 V 4.2505988 h 3.053354 q 1.690557,0 2.492709,0.14663 0.810778,0.14663 1.362797,0.4916417 0.73315,0.4485152 1.112663,1.3369204 0.388138,0.8797799 0.388138,2.1045716 0,2.0183185 -1.069537,3.0706045 -1.060911,1.04366 -3.122356,1.04366 H 11.205524 V 17.53355 Z M 20.425739,9.7794117 q 0.07763,0 0.198382,0.00863 0.129379,0.00863 0.189756,0.00863 0.966033,0 1.362797,-0.3881382 0.405389,-0.3881382 0.405389,-1.3110445 0,-0.8539041 -0.405389,-1.2075411 -0.396764,-0.3622623 -1.362797,-0.3622623 -0.06038,0 -0.189756,0.00863 -0.120754,0.00863 -0.198382,0.00863 z M 17.355135,17.53355 V 4.2505988 h 3.493244 q 1.716433,0 2.492709,0.1638806 0.776277,0.1552553 1.259293,0.5433934 0.569269,0.4657659 0.845279,1.147164 0.284635,0.6813982 0.284635,1.6215552 0,1.1471639 -0.405389,1.9234403 -0.396764,0.7762767 -1.242042,1.2765437 1.440424,0.638271 1.518051,3.027478 0,0.0345 0,0.04313 0.0086,0.250134 0.01725,0.724525 0.0345,2.242576 0.741775,2.811845 h -3.631248 q -0.120755,-0.414014 -0.181132,-0.862529 -0.05175,-0.457141 -0.05175,-0.974658 0,-0.319136 0.01725,-0.767651 0.01725,-0.457141 0.01725,-0.595145 0,-1.216167 -0.319136,-1.664682 -0.319136,-0.448515 -1.147164,-0.448515 h -0.638272 v 5.31318 z m 9.5566,0 V 4.2505988 h 3.105106 V 17.53355 Z m 4.46768,0 V 4.2505988 h 4.347148 l 1.181665,5.649567 q 0.0086,0.043126 0.138005,1.0695362 0.138005,1.017785 0.284635,2.044195 0.112129,-0.767651 0.276009,-1.897565 0.172506,-1.1385385 0.198382,-1.2592926 l 1.17304,-5.6064406 H 43.28232 V 17.53355 h -2.9326 L 40.617104,7.2694514 38.512533,17.53355 h -2.36333 L 34.044631,7.2694514 34.312015,17.53355 Z m 13.299979,0 V 4.2505988 h 7.227995 v 2.5789627 h -4.14014 v 2.4409579 h 3.821005 v 2.6652156 h -3.821005 v 2.898099 h 4.14014 v 2.699716 z"
         id="path3" />
      <path
         style="fill:#ff2a2a;stroke:none"
         d="m 56.107683,9.7794117 q 0.07763,0 0.198382,0.00863 0.129379,0.00863 0.189756,0.00863 0.966033,0 1.362797,-0.3881382 0.405388,-0.3881382 0.405388,-1.3110445 0,-0.8539041 -0.405388,-1.2075411 -0.396764,-0.3622623 -1.362797,-0.3622623 -0.06038,0 -0.189756,0.00863 -0.120754,0.00863 -0.198382,0.00863 z M 53.037079,17.53355 V 4.2505988 h 3.493244 q 1.716433,0 2.492709,0.1638806 0.776277,0.1552553 1.259293,0.5433934 0.569269,0.4657659 0.845279,1.147164 0.284634,0.6813982 0.284634,1.6215552 0,1.1471639 -0.405388,1.9234403 -0.396764,0.7762767 -1.242043,1.2765437 1.440424,0.638271 1.518052,3.027478 0,0.0345 0,0.04313 0.0086,0.250134 0.01725,0.724525 0.0345,2.242576 0.741775,2.811845 h -3.631249 q -0.120754,-0.414014 -0.181131,-0.862529 -0.05175,-0.457141 -0.05175,-0.974658 0,-0.319136 0.01725,-0.767651 0.01725,-0.457141 0.01725,-0.595145 0,-1.216167 -0.319136,-1.664682 -0.319136,-0.448515 -1.147164,-0.448515 h -0.638272 v 5.31318 z m 9.556602,0 V 4.2505988 h 3.105106 V 17.53355 Z M 70.183715,6.7260579 v 8.3837851 q 0.09488,0.01725 0.181132,0.01725 0.08625,0 0.267384,0 0.500267,0 0.828028,-0.138004 0.336386,-0.138005 0.543393,-0.43989 0.172506,-0.241508 0.232883,-0.931532 0.069,-0.690023 0.069,-2.708342 v -0.60377 q 0,-1.6560567 -0.06038,-2.2339513 -0.06038,-0.58652 -0.224258,-0.8021523 Q 71.839772,6.9848167 71.486135,6.846812 71.141123,6.7088074 70.59773,6.7088074 q -0.163881,0 -0.258759,0.00863 -0.08625,0 -0.155256,0.00863 z M 67.061359,17.53355 V 4.2505988 h 3.424242 q 1.880314,0 2.785969,0.3277612 0.905656,0.3191358 1.440424,1.1040375 0.414014,0.6123958 0.58652,1.5870539 0.172506,0.9660328 0.172506,3.6226236 0,2.65659 -0.172506,3.622623 -0.172506,0.966032 -0.58652,1.587054 -0.534768,0.784901 -1.440424,1.112662 -0.905655,0.319136 -2.785969,0.319136 z m 9.504849,0 V 4.2505988 h 7.227995 v 2.5789627 h -4.14014 v 2.4409579 h 3.821005 v 2.6652156 h -3.821005 v 2.898099 h 4.14014 v 2.699716 z"
         id="path4" />
    </g>
  </g>
</svg>
